<?xml version="1.0" encoding="utf-8"?>

<!DOCTYPE svg PUBLIC "-//W3C//DTD SVG 1.1//EN" "http://www.w3.org/Graphics/SVG/1.1/DTD/svg11.dtd">
<svg version="1.1" id="Layer_1" xmlns="http://www.w3.org/2000/svg" xmlns:xlink="http://www.w3.org/1999/xlink" x="0px" y="0px"
	 viewBox="-421.9982 -340.8653 2033.9982 1668.6597" enable-background="new -421.9982 -340.8653 2033.9982 1668.6597"
	 xml:space="preserve">
<path fill="#FFFAF0" d="M549.3624-220.0708c14.5885-29.1599,29.1091-58.4215,45.7986-86.4292
	c34.7004,61.3019,65.2159,124.959,92.0546,190.0901c29.736,73.0607,54.8464,148.4089,69.0789,226.1291
	c4.7104,26.5845,8.1668,53.4231,9.5223,80.3973c0.4915,7.9804,0.1525,15.9948,1.0674,23.9413
	c62.0644-34.2599,128.2969-61.5222,197.4268-77.6863c1.7451,80.8548-7.6246,162.0654-28.7194,240.1754
	c-18.9937,69.0959-48.069,136.3111-91.9867,193.3432c-9.9289,13.4702-21.4675,25.6187-32.447,38.2078
	c53.5587-34.1922,111.6074-61.0139,171.2488-82.6847c103.1865-37.0895,213.7772-56.1511,323.4701-47.9503
	c92.4103,6.6249,183.2957,33.5483,264.337,78.4488c-24.1107,23.5008-51.983,42.7487-80.4651,60.5564
	c-61.912,37.8858-128.8391,67.0118-197.4437,90.3941c-86.9714,29.6682-176.9758,49.7124-267.6918,63.9451
	c20.0104,5.6253,38.5974,15.2323,56.9982,24.7206c58.7943,31.7692,111.5566,73.8402,158.897,120.7909
	c40.5121,39.6141,76.7206,83.4302,110.2012,129.0762c-85.5652,0.9658-171.1302-8.4888-254.8147-26.1439
	c-74.5856-15.9609-147.7989-39.2244-216.8101-71.8408c-63.979-30.2104-124.1796-68.8757-176.6708-116.4194
	c31.532,55.592,45.4767,120.9433,38.6144,184.5496c-5.0661,49.3566-21.6199,97.019-44.8666,140.6656
	c-26.7539,50.4072-62.2507,95.5619-100.933,137.2939c-56.761-60.0142-106.2363-129.3643-131.6517-208.6772
	c-19.8409-61.6407-22.2469-129.3982-2.7279-191.4286c6.4385-21.5522,15.6051-42.2065,26.4998-61.8611
	c-50.4749,44.9683-107.3715,82.5662-168.2329,111.9293c-57.7099,28.1434-118.6051,49.4415-180.7372,65.4193
	c-97.5612,24.619-198.2739,37.4962-298.9357,36.5303c39.038-53.9823,82.8541-104.5759,131.7025-149.9169
	c44.5616-40.9187,93.3931-77.7202,147.4092-105.2874c14.7579-7.5229,30.0071-13.9616,45.5782-19.5699
	c-76.7544-12.1993-153.0175-28.3127-227.366-51.1696c-65.8258-20.1799-130.347-45.1547-191.2931-77.3136
	c-30.4137-16.0117-59.8956-33.8871-87.5983-54.2365c-13.3007-9.9628-26.3473-20.3323-38.0892-32.1081
	c66.8594-36.6829,140.1235-61.8102,215.6072-72.9083c84.9043-12.7585,171.9435-8.3193,255.8143,9.3698
	c69.2823,14.6223,136.65,37.8858,200.6798,68.0454c29.9055,14.4868,59.489,29.8377,87.3781,47.9843
	c-45.2902-47.1201-79.3637-104.1861-102.8475-164.9966c-30.041-77.4153-45.0869-160.083-49.7803-242.8017
	c-1.3386-21.3828-0.9319-42.8164-0.9319-64.2331c69.1637,16.5539,135.7521,43.3586,197.7317,78.1607
	c0.7964-79.9737,19.2818-158.6258,43.7653-234.3806C489.7379-88.5207,517.7796-155.1938,549.3624-220.0708 M586.4689-179.457
	c-3.321,5.3711-7.4044,10.3695-9.9459,16.1642c-1.0844,73.6877-1.5927,147.4092-2.4229,221.1308
	c-0.7286,13.216,0.4744,26.5845-1.3555,39.7327c-0.7625-35.8695-3.033-71.7052-4.5071-107.5409
	c-2.084-43.4773-3.8462-86.9714-6.1843-130.4317c-4.8798,8.3193-9.9628,16.5539-14.3343,25.1612
	c1.7791,54.965,3.304,109.9469,4.9474,164.912c0.4745,27.2453,2.2535,54.4906,1.8639,81.7359
	c-8.0314-70.4684-16.8928-140.852-25.1104-211.2865c-3.7106,6.6758-7.201,13.5549-9.9628,20.6881
	c4.7949,75.2634,11.0811,150.4591,15.8931,225.7225c-10.6406-63.962-20.1459-128.1444-30.4815-192.1572
	c-2.8127,5.5406-5.8795,11.3183-6.8622,17.4858c6.0998,66.7747,13.1991,133.4816,19.231,200.2563
	c-10.9795-56.4222-20.5356-113.1323-31.2271-169.6223c-3.4396,9.5392-6.6758,19.1801-9.6579,28.8719
	c-1.4063,3.7954,0.1694,7.7432,0.6439,11.5555c5.422,33.2603,10.8608,66.5205,16.2997,99.7639
	c4.7951,27.5333,8.3701,55.3208,14.0123,82.6847c-0.7963-0.288-1.5757-0.593-2.3213-0.898l0.5084-1.7452
	c-12.6908-52.6098-26.3474-104.9825-39.1058-157.5754c-3.016,13.4024-6.9977,26.6015-9.2512,40.1394
	c11.42,44.5277,22.6028,89.1572,34.5989,133.5155c7.1671,4.8289,13.8598,10.3525,20.5017,15.8931
	c22.2639-62.5896,48.7975-123.9593,82.888-181.0761c33.6331,57.3541,60.6412,118.4696,82.6,181.1947
	c6.7604-5.5405,13.3685-11.3014,20.7389-16.0286c11.6064-44.46,23.145-88.9539,34.3956-133.4816
	c-2.2028-13.5888-6.303-26.8217-9.2004-40.2919c-7.8787,32.2098-16.0455,64.3517-24.0598,96.5277
	c-5.6423,21.4505-10.1831,43.2231-16.5709,64.4703c10.6067-63.2673,20.6542-126.6364,31.1592-189.9376
	c0.3897-2.2026-0.4066-4.3545-0.9997-6.4216c-2.999-9.1157-5.7607-18.2991-9.2512-27.2284
	c-10.4373,56.5746-20.4001,113.251-31.0915,169.7747c5.9133-66.7916,13.0805-133.4985,19.1631-200.2732
	c-0.9996-6.2013-3.9987-12.0299-6.8791-17.5705c-9.0987,57.3371-17.9771,114.7081-27.0758,172.0621
	c-1.1522,6.7605-1.5927,13.6904-3.8123,20.2307c5.981-75.2465,10.9117-150.5946,16.5878-225.875
	c-3.3209-6.9638-6.4047-14.0463-10.2509-20.722c-7.9635,70.3837-17.2994,140.6149-24.8563,211.0324
	c-0.9488-7.3874-0.3389-14.8596-0.0508-22.2639c1.9146-74.6534,4.7273-149.3239,6.32-223.9773
	c-3.8123-8.8446-9.1495-16.9944-14.1818-25.1951c-3.4226,79.296-7.7263,158.5581-10.6406,237.871
	c-1.7283-25.1951-0.9827-50.5427-1.6266-75.7886c-0.559-59.6245-1.2368-119.2659-1.8298-178.8904
	c1.4232-8.8784-6.2352-15.1137-10.1831-22.1792c-2.8804,88.3269-5.4727,176.6877-8.3701,265.0146
	c-0.9489-5.1847-0.3728-10.505-0.8302-15.7406C591.7045-13.1895,589.2137-96.3317,586.4689-179.457 M450.8015,157.4832
	c-3.4904,22.9247-7.218,46.0358-7.0654,69.2654c15.0629,8.404,29.0751,18.5532,43.3078,28.2619
	C475.0987,222.4619,462.7298,190.0658,450.8015,157.4832 M702.8035,255.2308c14.3173-10.2848,29.0583-19.9595,44.0533-29.2107
	c-1.1522-22.8908-3.9818-45.663-7.4551-68.3166C726.8465,190.0658,715.1385,222.7669,702.8035,255.2308 M586.5366,200.3166
	c-3.5073,5.9133-9.9459,10.9964-9.0309,18.5533c-1.22,67.2152-2.5585,134.4135-3.6259,201.6117
	c-1.6436,66.8086-1.9147,133.651-4.2359,200.4427c-1.6266-81.7189-3.2363-163.4717-4.8967-245.1907
	c-1.1182-45.1208-1.3724-90.2754-3.0328-135.3793c-4.2359,8.0821-9.031,15.9778-12.3011,24.5004
	c-2.084,124.7556-4.5917,249.5113-6.7267,374.2839c0.1865,6.4047,0.6439,12.8433-0.1694,19.231
	c-0.6778-14.2327-1.3555-28.4653-1.4402-42.7148c-2.3212-106.2193-4.1174-212.4557-6.5571-318.6581
	c-6.7437,17.1469-13.2161,34.4294-18.6379,52.0338c-3.1007,9.5054-1.0167,19.6037-1.9485,29.3802
	c-1.9486,100.6788-3.9817,201.3577-5.8795,302.0364c-0.5421,4.3884-0.881,8.8107-1.4571,13.2159
	c0.9828-16.4353-0.1694-32.8705-0.288-49.3058c-1.7452-79.1774-3.304-158.3717-5.134-237.5322
	c-8.8615,38.3772-13.0634,77.7541-14.8764,117.0802c-1.6436,44.2058,0,88.7675,8.1668,132.3295
	c6.4893,33.5313,16.9944,66.961,35.9373,95.6634c14.3343,21.8064,34.4294,41.1052,59.6754,49.3059
	c6.0319,2.5416,12.1824-0.7625,17.7568-2.9481c24.2802-10.6914,42.9351-31.0577,56.3544-53.491
	c18.6549-31.7523,28.4314-67.859,34.0397-104.0167c6.1843-41.444,7.2349-83.5488,5.1169-125.3486
	c-2.1517-36.9879-6.3876-74.0096-14.8426-110.1164c0.017,36.1746-1.4401,72.3322-1.9824,108.5068
	c-1.2369,55.9646-2.3721,111.9124-3.609,167.8771c-0.3049,3.9987,0.305,7.9804,0.5592,11.996
	c-2.389-10.1152-1.2031-20.5186-1.796-30.7695c-2.084-102.2037-3.8801-204.4244-6.0828-306.6281
	c-4.2867-20.5017-13.1313-39.8174-19.8917-59.6076c-2.101,70.0957-2.9482,140.2591-4.5239,210.3885
	c-1.3217,50.3055-1.3217,100.6788-3.6937,150.9335c-1.7452-127.1277-4.6088-254.2555-6.6758-381.3832
	c-0.1017-5.4219,0.5591-11.1827-1.9316-16.1981c-3.321-6.896-7.1501-13.5379-10.522-20.4
	c-0.4404,5.405-0.8302,10.8439-0.6777,16.2828c-2.2026,109.5911-4.3715,219.1823-6.608,328.7734
	c-0.4575,12.3857,0.3898,24.8223-0.61,37.225c-2.1688-56.4221-2.2704-112.8951-3.6937-169.3342
	c-1.3217-78.0083-2.7788-156.0335-4.2698-234.0418c0.9658-7.5229-5.5574-12.5891-8.9292-18.5532
	c-2.0841,94.2741-3.8293,188.5482-5.7439,282.8054c-1.1183,42.5285-1.2877,85.1416-2.8974,127.6191
	C591.8739,473.9725,589.4001,337.1361,586.5366,200.3166 M883.8458,210.703c-52.6437,67.0119-104.5081,134.6507-157.5246,201.3576
	c3.7106-6.8452,8.5904-12.9449,12.7925-19.4851c39.2921-59.2348,79.0757-118.1477,118.3-177.4333
	c-5.8624,1.0166-11.6403,2.3213-17.401,3.7445c-41.3594,53.6264-82.7017,107.2698-123.8915,161.0319
	c-2.118,2.6602-4.5748,4.9814-7.3705,6.9638l4.2359-1.2708c-2.4907,1.7621-2.8295,5.1509-1.9316,7.8788
	c14.0124,64.9278,20.5018,131.6517,17.0622,198.0536c-2.1348,35.0563-7.1162,70.265-18.6548,103.5762
	c-10.1154,29.6681-25.9407,58.1672-49.6618,79.1095c-17.8754,15.3679-40.1392,27.1437-64.0128,28.4653
	c-24.4156-0.6948-47.2048-12.7756-65.487-28.3298c-41.8337,55.7275-64.267,127.06-55.5241,196.749
	c2.101-24.5173,6.2522-48.8652,11.9452-72.8066c8.0143-32.3284,18.4007-64.6567,36.0051-93.1559
	c-1.7113,5.3373-4.3206,10.3187-6.3369,15.5543c-10.7762,27.0588-17.1131,55.6426-21.8403,84.3112
	c-6.1336,38.7501-9.2513,77.9744-9.9629,117.1819c3.6598,16.2488,10.522,31.5659,15.927,47.2895
	c0.881-9.6239,0.8979-19.2649,0.9826-28.9058c2.6263-73.4504,11.3523-147.6802,36.4287-217.149
	c-1.1182,8.8276-4.507,17.1639-6.2013,25.8898c-12.1317,54.4398-15.3679,110.3875-16.7573,165.9964
	c0.1695,28.3126-0.5253,56.6593,1.1183,84.9382c5.4219,11.6572,12.2672,22.7213,19.2479,33.5482
	c-3.4396-81.3123-3.016-163.3362,10.7084-243.7843c3.1685-16.0625,5.71-32.447,11.6233-47.7979
	c-9.4546,44.0195-12.3519,89.1403-13.4532,134.0577c-1.3555,59.9634,1.508,119.9607,5.998,179.7715
	c4.6088,6.4216,9.1835,12.911,14.4191,18.8413c-4.1173-76.3138-3.8123-153.0345,4.4561-229.0943
	c3.5582-29.7191,7.7433-59.5736,16.1642-88.3608c-0.288,5.8116-1.9146,11.437-2.7449,17.1807
	c-9.7764,60.4548-10.4711,121.9092-9.9289,182.9908c0.8981,44.155,2.8804,88.3101,6.4217,132.3464
	c-0.1526,4.6594,4.4053,7.1841,6.9807,10.488c0.9827-13.0804,0.7455-26.2288,1.2199-39.326
	c1.5588-64.9279,3.1007-129.8727,4.6595-194.8174c1.2369-40.8341,1.4233-81.7698,3.338-122.553
	c2.8465,118.7407,5.9133,237.4983,8.4039,356.2389c3.4227-2.3551,7.2857-5.5236,7.4722-10.0135
	c1.5927-19.3666,2.7279-38.7501,3.7784-58.1334c3.4734-73.01,4.7612-146.3927-2.2873-219.2332
	c-1.5081-18.5363-5.2187-36.8015-7.6925-55.1853c9.4546,33.2094,13.8938,67.6049,17.5028,101.8818
	c6.8621,71.6714,6.8452,143.8341,3.0837,215.6919c4.8798-6.1844,10.0645-12.2333,14.0801-19.0277
	c4.6595-49.5939,6.0659-99.4419,6.7944-149.2222c-0.6778-55.0497-2.3721-110.5231-13.9108-164.5391
	c8.3532,23.7718,11.8945,48.9669,15.5881,73.8231c9.7256,72.1458,9.7087,145.1896,6.8452,217.7929
	c6.6927-11.0472,13.8937-21.9249,19.1631-33.7178c1.4911-28.2449,1.0167-56.5238,1.0844-84.7856
	c-1.491-55.5919-4.5578-111.5566-16.808-165.9794c-1.7113-8.709-5.0153-17.0452-6.2184-25.856
	c13.4871,36.2084,21.637,74.1621,27.4487,112.3022c4.9306,33.616,7.8109,67.5371,8.8446,101.509
	c0.7115,10.4203-0.3729,20.9253,1.1013,31.3118c6.0489-15.2662,12.301-30.5833,16.0287-46.6118
	c-1.1352-46.4424-4.7951-93.0034-13.9615-138.6155c-5.1677-26.9404-13.1652-53.3215-24.4326-78.3303
	c12.3179,18.7566,20.1628,40.0377,27.313,61.2004c10.8101,34.0396,17.5197,69.3331,20.9423,104.8807
	c1.2199-11.2675,1.9146-22.5859,1.6774-33.9042c-0.5253-58.3028-22.1453-115.0299-56.3544-161.8112
	c0.8811,0.4744,2.6094,1.4402,3.4734,1.9146c10.81,13.0296,21.5692,26.1779,30.3968,40.6816
	c3.2701,4.6765,5.1678,10.793,10.6067,13.5209c37.6487,23.6194,77.2458,44.0533,117.6224,62.6066
	c38.8178,17.5027,78.415,33.5314,119.0796,46.1882c-70.7056-37.852-141.5467-75.4836-212.371-113.1154
	c16.8081,6.3031,32.5317,15.1476,48.95,22.3826c78.6691,37.2419,157.406,74.3823,236.1259,111.5227
	c8.8785,2.9312,18.1296,4.7103,27.2792,6.7096c-44.7141-25.0256-90.0552-48.9161-134.9727-73.569
	c-46.6796-24.9749-92.9016-50.8647-139.8184-75.3651c4.2867,0.7116,8.1499,2.7956,11.996,4.7441
	c106.3549,51.1697,212.7098,102.3562,319.0479,153.5428c7.8448,3.4734,16.7063,3.1684,25.0426,4.6764
	c-14.7748-8.9293-30.4816-16.2659-45.6461-24.5004c-78.0929-41.139-156.2368-82.1934-234.3298-123.3154
	c-15.8422-8.6074-32.1928-16.3506-47.6962-25.5171c121.9261,56.3713,243.5133,113.5051,365.3208,170.1645
	c8.9122,3.9817,17.6042,9.8103,27.8552,8.7598c-47.7131-26.0762-95.816-51.4916-143.6986-77.2966
	c-74.6026-39.936-149.0358-80.211-223.7739-119.9098c5.3881,1.508,10.3356,4.2189,15.4017,6.608
	c126.5856,60.1667,253.0694,120.5875,379.7227,180.6356c-3.1006-5.1678-5.8116-10.9286-10.3186-14.9612
	c-112.8612-59.5229-225.858-118.8254-338.7361-178.2974c-4.7612-3.1685-10.8948-3.9987-14.7919-8.3532
	c-53.2876-1.9316-107.0835-6.1166-158.6428-20.434c47.2896,3.6768,94.7487,4.1343,142.1398,3.3718
	c68.1472-1.5418,136.2264-7.0824,203.6281-17.3672c79.6857-12.2671,158.6259-30.9897,234.1265-59.5567
	c-123.1121,22.5181-246.1394,45.3749-369.2177,68.0285c-8.6243,1.4572-17.1808,3.7107-25.9576,3.931
	c18.5532-3.4565,36.9032-7.9296,55.3716-11.8775c133.058-29.3124,266.116-58.6926,399.1909-87.9541
	c17.3333-2.6771,31.7863-13.3346,47.2897-20.7899c-145.7996,28.3975-291.4467,57.4896-437.1955,86.0396
	c-16.5031,2.9482-32.8197,7.3027-49.4752,9.0817c176.2133-39.8174,352.2571-80.5329,528.4028-120.7061
	c8.692-4.0325,16.2827-10.1831,24.1785-15.605c-160.8456,31.7015-321.6232,63.8265-482.4518,95.6465
	c-18.8073,3.3209-37.3944,8.4209-56.4221,10.3356c3.3718-0.7963,6.8453-1.2877,10.2509-2.0163
	c182.8722-42.071,365.6427-84.5824,548.5319-126.5347c-6.5063-2.2535-12.6401-7.0485-19.6039-7.0316
	c-173.1295,34.243-346.2252,68.5707-519.3548,102.8138c-4.9475,1.0336-9.8951,2.2026-14.9612,2.3043
	c136.2434-31.1423,272.4021-62.6913,408.6117-94.02c32.3282-7.6924,64.9447-14.436,97.1035-22.7722
	c-6.8789-2.3891-13.7412-4.9814-20.8914-6.3538c-0.2202-0.9828-0.4066-1.9316-0.5591-2.8804
	c-1.6267,3.6429-5.9641,2.7787-9.1835,3.7953c-143.5969,29.6513-287.1769,59.2686-430.7907,88.8861
	c-16.4183,3.0159-32.6164,7.6754-49.2381,9.4037c58.9976-13.6058,117.7579-28.2111,176.6539-42.2234
	c92.6814-22.0945,185.2103-44.9005,277.9934-66.5884c-11.2336-3.0836-22.6705-5.405-34.1244-7.3365
	c-143.6139,29.3293-287.0074,59.8616-430.6044,89.191c29.2107-7.9634,58.7943-14.5206,88.1406-22.0267
	c61.0986-15.012,122.2141-30.0579,183.3127-45.0869c39.0042-9.3528,77.788-19.6545,116.9108-28.4313
	c-15.7576-2.7279-31.7693-3.5412-47.6963-4.6934c-3.287-0.1186-6.6418-0.5422-9.8781,0.1186
	c-109.4386,24.653-218.8942,49.2551-328.3328,73.908c-4.7951,1.1691-9.607,2.3721-14.5377,2.4738
	c97.5612-25.0427,194.7327-51.6949,292.2769-76.8561c-37.7842,0.2372-75.4836,5.1-112.6069,12.013
	C938.9972,551.947,821.3578,610.6564,721.001,689.478c5.3032-5.9981,12.1485-10.3356,17.9601-15.7745
	c66.1647-59.7431,116.7244-136.3281,147.5109-219.7753c-29.2954,37.1234-58.1674,74.6027-87.2764,111.8616
	c-17.6552,22.2639-34.6157,45.1208-52.6776,67.0458c11.5386-18.4177,24.0768-36.1916,35.9542-54.4059
	c39.1396-58.5909,78.1439-117.2835,117.3174-175.8575c6.3369-7.7941,6.2352-18.4007,8.6921-27.7197
	c-37.3606,47.1879-74.0773,94.8841-111.2177,142.2584c-13.5887,16.8758-26.2286,34.531-40.2918,50.9832
	c52.3726-79.0079,105.2875-157.677,157.8634-236.5494c1.525-3.5074,1.203-7.5399,1.8638-11.2336
	c-51.3222,65.3514-102.153,131.1095-153.5429,196.427l0.4915,0.3049c-0.7116,0.3897-2.1519,1.1691-2.8804,1.5588
	c14.2157-20.0951,27.5164-40.8171,41.2915-61.2172c38.0214-56.8796,75.9073-113.827,114.0643-170.588
	c5.2864-6.5572,2.6262-15.6728,3.4396-23.3991c-51.2375,66.0461-102.9155,131.7872-154.2206,197.7994
	c-3.321,4.1851-6.3708,8.6243-10.3525,12.2163c53.8806-80.5667,107.6595-161.2182,161.574-241.785
	c3.1007-3.897,1.0844-9.1326,1.1352-13.6057c-58.6587,75.0601-117.2158,150.1879-175.8405,225.265
	c2.372-5.4219,6.0488-10.1153,9.285-15.029c48.6959-72.976,97.5273-145.8504,146.1724-218.8434
	C892.809,209.7542,888.319,210.2625,883.8458,210.703 M292.7009,209.4153c36.2932,54.3551,72.6033,108.7101,108.9134,163.0482
	c15.8084,24.0938,32.5317,47.6115,47.7301,72.078c-59.2178-75.2804-117.9104-151.0013-176.925-226.468
	c-0.3897,3.6598-0.6269,7.3196-0.7455,11.0133c51.1696,76.1445,101.9665,152.577,153.0006,228.8232
	c3.5073,5.5744,7.7602,10.7253,10.4372,16.7911c-36.3778-47.0862-73.1454-93.8506-109.7097-140.7843
	c-18.028-23.5516-36.9539-46.4593-54.4058-70.4175c-0.305,6.6588-1.3724,13.8937,1.0335,20.2476
	c51.8474,78.11,104.4572,155.7455,156.0335,234.0418c-10.4203-11.8266-19.5529-24.7546-29.4141-37.0556
	c-41.8506-53.3215-83.2099-107.0157-125.247-160.1847c0.7455,3.8462,0.0169,8.2854,2.2704,11.725
	C328.0961,410.8068,380.689,489.2218,432.96,567.8569c-9.1495-10.0475-16.8758-21.2812-25.4154-31.837
	c-42.1895-53.7112-83.786-107.8629-126.2128-161.3538c2.084,7.6246,2.8804,15.622,5.6761,23.0433
	c51.949,78.4488,104.7114,156.3893,156.5587,234.9229c-5.3203-5.1679-9.3698-11.437-14.0124-17.1639
	c-41.6135-53.5926-83.5319-106.948-124.9759-160.6761c6.6927,21.6539,16.7403,42.1725,26.8217,62.4371
	c29.8207,57.981,69.706,110.9297,117.9274,154.8475c6.2691,6.0319,13.6904,10.827,19.536,17.2994
	C363.5929,606.59,239.0237,546.1691,106.2537,524.7017c-30.9221-4.829-62.1829-8.6412-93.5116-8.5905
	c97.4595,25.2291,194.6479,51.5593,292.0566,76.9747c-4.812-0.4236-9.5392-1.4741-14.2157-2.6262
	C180.5344,565.8745,70.5874,540.798-39.4781,516.3315c-18.7565,0.2542-37.53,1.9993-56.0833,4.6764
	c54.2872,12.7755,108.3373,26.6184,162.5737,39.7327c75.2804,18.7735,150.781,36.7845,225.9767,55.88
	c-0.915-0.1356-2.7618-0.3898-3.6768-0.5253c-142.3261-29.5158-284.6184-59.3195-426.9615-88.6489
	c-11.4878,1.7114-22.8569,4.4223-34.1244,7.235c151.5943,36.0898,302.9683,73.0945,454.5965,109.0319
	c-13.0127-1.2708-25.6865-4.8798-38.5298-7.2519c-149.3747-30.8034-298.7324-61.6916-448.124-92.4272
	c-8.3701,0.0678-16.1472,4.6425-24.2293,6.608c18.4685,5.3541,37.4962,8.8615,56.1849,13.4702
	c76.89,17.6552,153.7461,35.3951,230.6192,53.1351c73.0607,16.6047,145.969,33.9719,219.1144,50.1869
	c-6.4894,0.0508-12.7585-1.7621-19.0615-2.9821C87.0228,630.4635-84.7344,596.4577-256.4916,562.4349
	c-7.1333-0.2033-13.1482,5.117-19.9596,6.8283c185.8712,42.952,371.7423,85.921,557.6473,128.7374
	c-24.1785-3.3209-47.9165-9.3698-71.9255-13.6735c-155.2541-30.7187-310.4574-61.7086-465.7115-92.3594
	c10.3356,6.4216,19.519,16.0795,32.159,17.4688c173.5193,39.631,346.9878,79.4993,520.5071,119.0456
	c-6.3539-0.4574-12.5383-1.9993-18.7735-3.1515c-155.9657-30.7695-311.9315-61.4713-467.8802-92.2747
	c9.7087,5.4727,19.6884,10.4881,29.6174,15.5712c6.5572,3.5242,14.0462,4.4222,21.1795,6.0997
	c75.7548,16.7063,151.5265,33.3958,227.2644,50.1191c74.6873,16.215,149.2052,33.2941,223.9943,49.0516
	c-13.3177-0.6607-26.2117-4.5069-39.3769-6.4046c-118.2493-21.8911-236.5156-43.6467-354.7818-65.487
	c28.3805,11.4539,57.7776,20.2816,87.2086,28.6347C88.141,733.65,174.045,747.171,260.2878,754.1009
	c78.4997,6.0488,157.4568,6.9129,236.0242,1.4063c-52.2031,14.2666-106.5582,18.6041-160.4896,20.434
	c-0.3558,0.9998-0.6947,1.9993-1.0166,3.033c-1.3724,0.4406-4.1004,1.3385-5.4728,1.796
	C215.3704,840.8351,101.3231,900.7476-12.6903,960.7449c-7.2688,2.9821-9.7256,11.1658-14.2157,16.9775
	c112.8104-53.2706,225.3159-107.2021,338.0077-160.7438c19.2987-8.8616,38.1569-18.7396,57.6929-27.025
	C246.428,856.0674,123.604,921.3849,1.1865,987.4479c10.2,1.1182,18.8413-4.6086,27.7028-8.5904
	c121.9091-56.6932,243.581-113.8948,365.6088-170.3c-18.1297,10.5051-37.0218,19.6377-55.4394,29.6005
	c-90.7499,47.6624-181.3642,95.5449-272.1649,143.0886c7.9635-0.3219,16.215-0.8811,23.7888-3.5243
	c110.4214-52.9318,220.6225-106.338,331.0947-159.1511c-5.4219,4.0326-11.6741,6.7266-17.5197,10.0475
	c-85.3787,46.4085-170.9269,92.495-256.204,139.1068c9.2851-1.8468,18.6718-3.6598,27.635-6.7266
	c91.6309-43.1553,183.1771-86.5309,274.7742-129.7201c3.2193-1.6436,6.5741-3.016,10.0815-3.897
	c-10.81,5.3203-21.315,11.2335-32.0234,16.7571c-59.9973,32.2776-120.435,63.7927-180.2967,96.3414
	c83.2777-27.0081,163.3362-63.9791,238.1083-109.4557c3.4904-2.9312,5.4897-7.0824,7.811-10.9117
	c10.3186-16.4861,21.9928-32.1758,35.4629-46.222c-11.9114-11.1998-22.4503-23.8905-30.5832-38.1061
	c-19.6884-33.5654-29.126-72.0951-34.0567-110.4045c-9.4544-79.9229-1.2368-160.8963,15.2662-239.3282
	c-0.9489,0.1356-2.8296,0.3897-3.7614,0.5253l1.9993-1.4233c-9.4206-10.8947-17.7061-22.7383-26.6184-34.0396
	c-33.7347-43.6806-67.2321-87.5306-101.0346-131.1603c-5.3541-3.304-12.2841-3.2023-18.299-4.8798
	c43.5111,65.8259,87.9542,131.0587,131.2281,197.0201c-10.7423-12.606-20.4509-26.0592-30.8035-38.9702
	c-42.2742-54.1009-84.396-108.3034-126.738-162.3365C301.698,210.2625,297.2079,209.7203,292.7009,209.4153 M374.2674,226.1048
	c32.1928,48.8483,64.3687,97.7137,96.5785,146.562c2.9312,4.7781,6.1336,9.3867,9.8273,13.6057
	c1.9654-11.5894,5.6083-22.84,7.794-34.3446c-31.5997-39.5633-63.4368-78.9571-95.3076-118.3001
	C387.7206,229.5273,380.6212,228.2735,374.2674,226.1048 M796.9083,233.5091c-31.9556,39.3938-63.6232,79.0249-95.5958,118.4187
	c2.9651,10.9117,4.8798,22.1622,8.421,32.8536c1.796-0.6608,2.8804-2.4399,4.0665-3.8631
	c33.9379-51.7288,68.1132-103.3051,102.0512-155.0338C809.582,228.443,802.4657,229.5443,796.9083,233.5091 M416.8974,243.8108
	c24.2971,35.0224,48.2384,70.282,72.7388,105.1519c2.4908-12.2841,7.7602-24.0938,9.5054-36.3948
	C478.1655,283.2047,449.2766,259.6192,416.8974,243.8108 M690.943,312.6187c1.7283,12.2672,6.8961,24.1107,9.4207,36.3609
	c24.5851-34.9546,48.6111-70.3159,72.9422-105.4569C741.0791,259.7717,711.7498,282.9336,690.943,312.6187 M223.3847,778.3472
	c-56.473,19.4343-108.8964,50.153-154.0681,89.1402c68.8079-30.3798,137.6328-60.7258,206.339-91.3768
	c-11.3353-0.8134-22.7044-0.8134-34.0227-1.6436C235.2452,773.5012,229.2811,776.3986,223.3847,778.3472 M915.632,776.2292
	c10.0645,5.7947,21.1964,9.5053,31.6506,14.5714c57.8962,25.517,115.623,51.39,173.5872,76.7037
	c-47.764-40.9358-103.3391-73.0099-163.3193-92.2071c-4.6934-1.7621-9.6918-0.6439-14.5037-0.5421
	C933.9141,775.4498,924.7137,775.1448,915.632,776.2292 M28.9062,907.8131c-8.1668,5.3373-13.6396,13.9107-19.9257,21.2303
	c105.0502-48.662,209.8802-97.8492,314.8627-146.6807c3.8801-1.813,7.811-3.6259,11.3014-6.1675
	c-18.1127,0.0847-36.2762,0.2542-54.355,0.0847C196.7155,819.8589,112.8786,863.997,28.9062,907.8131 M860.3621,779.6687
	c106.914,49.6786,213.6416,99.7469,320.5896,149.3748c-5.4728-7.0316-11.115-14.1819-17.7908-20.0443
	c-81.9053-43.1045-164.0479-85.7684-246.004-128.7882c-3.609-1.7283-7.0485-4.6255-11.2674-4.2189
	c-15.7407,0.7625-31.5151,0.4575-47.2557-0.0847C855.3806,776.8392,858.6507,779.2451,860.3621,779.6687z"/>
</svg>
